<svg width="50" height="50" viewBox="0 0 50 50" fill="none" xmlns="http://www.w3.org/2000/svg">
<g clip-path="url(#clip0_267_2656)">
<path d="M38.9014 9.58233C37.0794 7.50675 36.0751 4.83854 36.076 2.07617H33.8729C34.1575 3.60345 34.7501 5.0567 35.6147 6.34724C36.4792 7.63778 37.5975 8.73853 38.9014 9.58233ZM18.5167 25.824C16.9716 25.8319 15.4734 26.3563 14.2605 27.3139C13.0475 28.2714 12.1893 29.6072 11.8223 31.1088C11.4553 32.6104 11.6006 34.1916 12.2351 35.6011C12.8695 37.0106 13.9568 38.1674 15.3239 38.8877C14.5764 37.8551 14.1288 36.636 14.0305 35.3649C13.9322 34.0938 14.187 32.8202 14.7668 31.6849C15.3466 30.5496 16.2288 29.5968 17.316 28.9317C18.4032 28.2665 19.653 27.915 20.9273 27.916C21.6201 27.9251 22.308 28.033 22.9703 28.2364V19.8352C22.2939 19.7337 21.6112 19.6804 20.9273 19.6755H20.56V26.0635C19.8941 25.8848 19.2058 25.8042 18.5167 25.824Z" fill="#FE2C55"/>
<path d="M20.5595 19.6914V17.743C19.8834 17.6359 19.2006 17.5772 18.5162 17.5674C11.8902 17.5533 6.02406 21.8491 4.03428 28.172C2.04449 34.495 4.3932 41.3781 9.8319 45.164C7.83752 43.0286 6.50355 40.3613 5.991 37.4841C5.47846 34.6069 5.80925 31.6428 6.94346 28.9495C8.07766 26.2563 9.96679 23.949 12.3828 22.3062C14.7989 20.6635 17.6385 19.7554 20.559 19.6917L20.5595 19.6914Z" fill="#25F4EE"/>
<path d="M20.9285 41.7622C24.6332 41.7572 27.6783 38.8373 27.8405 35.1346V2.09218H33.8742C33.7511 1.40173 33.6923 0.701325 33.6987 0L25.4458 0V33.0105C25.3086 36.7321 22.2562 39.68 18.5338 39.686C17.4215 39.6765 16.3273 39.4029 15.3413 38.8875C15.9803 39.7733 16.8195 40.4953 17.7905 40.9949C18.7615 41.4945 19.8367 41.7574 20.9285 41.7622ZM45.1441 13.3031V11.4665C42.9235 11.4674 40.7521 10.8118 38.9027 9.58219C40.5239 11.4678 42.7149 12.774 45.1441 13.3031Z" fill="#25F4EE"/>
<path d="M45.1395 13.3032V19.6914C41.0286 19.6834 37.0244 18.3816 33.6941 15.9703V32.7551C33.6765 41.1304 26.8849 47.9109 18.5134 47.9109C15.4042 47.9165 12.3699 46.9567 9.8291 45.164C11.901 47.3935 14.596 48.9471 17.563 49.6225C20.5301 50.2978 23.6317 50.0636 26.4638 48.9503C29.2958 47.837 31.7272 45.8963 33.4411 43.3809C35.155 40.8654 36.072 37.8919 36.0727 34.8477V18.1105C39.4142 20.5059 43.4233 21.7907 47.534 21.7836V13.5582C46.7292 13.5558 45.9268 13.4703 45.1395 13.3032Z" fill="#FE2C55"/>
<path d="M33.698 32.7551V15.9703C37.0384 18.3679 41.0482 19.6529 45.1593 19.6435V13.2555C42.7306 12.7423 40.5345 11.4532 38.902 9.58233C37.5981 8.73853 36.4798 7.63778 35.6152 6.34724C34.7507 5.0567 34.1581 3.60345 33.8735 2.07617H27.8398V35.1351C27.7811 36.5741 27.2757 37.9591 26.394 39.0975C25.5123 40.236 24.298 41.0713 22.9199 41.4876C21.5418 41.9038 20.0683 41.8802 18.7042 41.42C17.3401 40.9599 16.1532 40.086 15.3084 38.92C13.941 38.1998 12.8535 37.043 12.2189 35.6334C11.5842 34.2238 11.4389 32.6424 11.8059 31.1407C12.1729 29.6389 13.0312 28.303 14.2444 27.3455C15.4575 26.3879 16.9559 25.8636 18.5011 25.8559C19.1942 25.8621 19.8825 25.9697 20.5444 26.1754V19.7872C17.6082 19.837 14.7499 20.7404 12.318 22.3873C9.88615 24.0343 7.98578 26.3535 6.84862 29.0622C5.71146 31.771 5.38664 34.7523 5.91377 37.6425C6.44089 40.5328 7.79719 43.2071 9.81729 45.3396C12.3831 47.0732 15.4217 47.9713 18.5173 47.9109C26.8888 47.9109 33.6803 41.1304 33.698 32.7551Z" fill="black"/>
</g>
<defs>
<clipPath id="clip0_267_2656">
<rect width="50" height="50" fill="white"/>
</clipPath>
</defs>
</svg>
