<svg width="50" height="50" viewBox="0 0 50 50" fill="none" xmlns="http://www.w3.org/2000/svg">
<g clip-path="url(#clip0_267_2667)">
<path d="M34.8997 4.80615C29.105 4.89393 24.5394 9.89846 24.5394 15.6932V17.0979C14.1792 15.2542 9.08686 12.4446 3.46772 6.56214C0.1314 13.0592 3.81892 18.5027 7.85763 21.4879C5.13583 21.4879 2.8531 21.1367 1.09712 19.5564C0.921568 19.4686 0.745921 19.5564 0.833696 19.7321C2.32626 25.1756 7.41856 29.1265 11.3695 30.2679C7.76975 30.2679 5.39915 30.7946 2.853 29.2143C2.67745 29.1265 2.50181 29.2143 2.58958 29.3898C4.52111 34.7455 8.38427 36.4138 14.0034 36.4138C11.1938 38.5209 7.41856 40.6281 0.306852 40.8037C0.0434302 40.8037 -0.132119 41.1549 0.131303 41.3304C2.76523 43.5254 9.26241 45.1936 18.3934 45.1936C33.407 45.1936 45.611 31.8482 45.611 15.342V14.464C47.9816 13.5861 49.2985 11.4789 50.0009 9.37171C50.0009 9.28393 49.9131 9.19616 49.8253 9.19616L44.8207 10.9521C44.733 10.9521 44.6452 10.7766 44.733 10.6887C46.8404 9.02051 48.4207 6.91333 49.1231 4.89393C49.1231 4.89393 49.0353 4.80615 48.9474 4.80615C46.5768 5.77197 44.2941 6.73768 42.5381 7.26453C42.2747 7.3523 41.9235 7.3523 41.6602 7.17675C40.5188 6.56214 37.0946 4.80615 34.8997 4.80615Z" fill="#1DA1F2"/>
</g>
<defs>
<clipPath id="clip0_267_2667">
<rect width="50" height="50" fill="white"/>
</clipPath>
</defs>
</svg>
